<svg width="442" height="397" viewBox="0 0 442 397" fill="none" xmlns="http://www.w3.org/2000/svg">
<g clip-path="url(#clip0_324_665)">
<path d="M223.674 190.152C223.318 188.14 222.961 186.127 222.723 184.114V184.232V183.996C222.486 186.956 222.129 189.797 221.654 192.639L221.892 192.402L222.01 192.284C222.486 191.692 223.08 190.981 223.674 190.152Z" fill="#D3B200"/>
<path d="M221.891 192.402L223.674 190.271V190.153C223.08 190.982 222.486 191.692 221.891 192.402Z" fill="#D3B200"/>
<path d="M439.029 211.583C414.189 193.468 383.17 183.641 350.843 183.759C371.641 160.079 384.596 131.07 387.448 101.233L387.805 97.5628L384.12 97.4444C358.211 96.9708 332.183 103.838 308.651 117.454C313.286 89.1563 309.84 60.3847 298.668 35.5204L297.123 31.9684L293.795 33.7444C279.533 41.4405 266.341 52.215 255.169 64.884C249.108 41.2037 237.579 19.773 221.416 2.60483L219.039 0L216.543 2.72323C200.617 20.1282 189.327 41.6773 183.622 65.5944C171.499 53.1622 157.237 42.8613 142.025 35.8756L138.578 34.3364L137.271 37.7701C128.238 62.0424 126.456 89.5115 131.804 116.152C108.866 103.483 83.6698 96.9708 58.4738 97.326L54.7895 97.4444L55.146 101.115C57.9984 130.952 70.9529 159.96 91.7515 183.641C59.1869 183.522 28.0484 193.231 3.09008 211.465L0 213.715L2.49583 216.556C22.1059 239.171 49.3224 255.392 79.9855 262.733C56.3345 279.546 38.0317 302.516 28.0484 328.209L26.7411 331.642L30.3065 332.708C43.6176 336.734 57.523 338.746 71.4283 338.746C94.2474 338.746 117.423 333.418 139.172 322.881C161.516 312.106 180.413 296.832 194.556 278.362C194.2 277.178 193.724 275.994 193.368 274.81C192.892 273.389 192.417 271.85 191.941 270.429C178.036 289.728 159.02 305.712 136.201 316.724C103.874 332.353 68.4571 336.023 36.0113 327.262C46.5889 302.397 65.4859 280.375 89.3746 264.746C92.94 265.338 96.5055 265.93 99.9521 266.285C131.091 269.837 161.873 264.154 188.138 250.419C187.901 247.814 187.782 245.209 187.663 242.841C161.991 257.05 131.566 262.97 100.665 259.418C99.9521 259.299 99.239 259.181 98.6448 259.181C101.141 257.76 103.636 256.458 106.251 255.273C132.041 242.841 160.565 237.987 187.663 241.184C187.663 236.684 187.901 232.54 188.257 228.87C160.09 225.2 132.755 212.531 110.411 192.639C110.054 192.284 109.698 191.929 109.341 191.692C139.529 195.244 167.102 207.439 188.614 226.265C189.089 223.305 189.564 220.582 190.159 218.569C167.815 199.98 139.648 188.14 109.104 184.706C106.608 184.469 104.112 184.233 101.378 183.996C79.8666 161.5 66.0801 133.32 62.5147 104.193C87.2353 104.43 111.956 111.771 134.181 125.387C135.963 131.781 138.103 138.056 140.599 144.213C151.414 170.261 169.004 192.758 190.872 208.505C190.753 205.782 190.396 202.585 190.04 199.27C171.38 184.469 156.405 164.578 146.898 141.608C145.471 138.293 144.283 134.859 143.094 131.544C147.492 134.741 151.889 138.174 155.93 141.727C168.885 153.211 179.462 166.472 187.544 181.036C186.593 174.879 185.642 168.959 184.81 163.631C177.917 153.922 169.835 144.805 160.565 136.635C154.147 130.952 147.254 125.742 140.004 121.125C133.468 95.1948 134.3 67.9624 142.5 43.9269C157 51.1494 170.549 61.4503 181.839 74.0009C180.175 83.3546 179.343 93.0635 179.343 102.654C179.462 114.494 180.77 126.098 183.384 137.109C183.86 128.347 184.929 118.875 186.474 109.877C186.355 107.509 186.237 105.022 186.237 102.536C186.237 95.3131 186.712 88.0907 187.663 80.8682C188.97 82.5258 190.278 84.1834 191.466 85.9594C192.298 82.9994 193.13 80.1578 193.962 77.6713C192.417 75.6585 190.872 73.7641 189.208 71.8697C193.962 48.5446 204.183 27.3507 219.039 10.3009C234.133 27.2323 244.71 48.3078 249.821 71.6329C247.087 75.1849 244.473 78.9738 242.096 82.7626C242.928 85.7226 243.76 88.9195 244.473 92.2347C246.731 88.3275 248.989 84.657 251.604 80.9866C252.673 87.8539 253.149 94.9579 253.268 101.944C253.386 112.6 252.198 123.137 250.177 133.32C250.891 142.555 251.009 150.133 250.534 153.448C250.415 154.632 250.296 155.935 250.296 157.474C256.952 140.069 260.398 121.243 260.28 101.825C260.161 92.2347 259.21 82.6442 257.427 73.2905C267.767 60.5031 280.365 49.6102 294.033 41.5589C304.135 66.1864 306.631 94.4843 300.926 122.072C294.389 126.334 288.09 131.189 282.267 136.398C269.431 147.883 258.497 161.263 250.177 175.826C249.94 178.076 249.583 180.325 248.87 182.338C247.682 185.89 245.78 193.113 246.374 200.217C254.575 178.194 268.48 157.711 286.902 141.49C290.586 138.174 294.508 135.096 298.43 132.136C297.717 134.504 297.004 136.99 296.172 139.358C286.783 166.946 269.906 190.626 247.919 207.202C248.157 207.795 248.514 208.505 248.751 209.097C249.702 210.755 250.296 212.294 250.772 213.715C274.542 196.191 292.725 171.09 302.709 141.608C304.373 136.635 305.799 131.544 306.987 126.334C329.688 112.126 354.884 104.43 380.317 104.193C376.633 133.32 362.965 161.381 341.454 183.877C338.601 183.996 335.868 184.233 333.253 184.588C302.471 188.021 274.185 199.98 251.841 218.806C251.96 220.937 251.841 222.595 251.723 224.016C252.198 224.252 252.792 224.608 253.743 224.963C254.1 225.081 254.456 225.2 254.813 225.436C276.324 206.847 303.778 195.007 333.728 191.574C333.372 191.929 333.015 192.284 332.54 192.639C311.622 211.228 286.426 223.424 260.28 228.041C263.37 229.58 266.698 231.238 270.025 233.132C294.389 227.331 317.565 215.254 337.175 197.849C339.671 195.599 342.167 193.231 344.663 190.745C376.514 189.324 407.415 197.849 432.136 214.899C413.001 235.737 386.497 250.656 357.142 256.931C352.507 254.089 347.634 251.366 342.761 248.998C320.893 238.579 297.479 233.251 274.542 233.251C273.115 233.251 271.689 233.251 270.263 233.369C274.423 235.619 278.701 238.105 282.504 240.473C301.877 241.539 321.249 246.512 339.433 255.392C341.81 256.576 344.068 257.76 346.326 258.944C344.663 259.181 343.117 259.418 341.454 259.536C328.618 260.957 315.901 260.838 303.541 259.062C304.492 261.194 305.205 263.68 305.205 266.285C317.327 267.706 329.688 267.824 342.167 266.403C346.564 265.93 351.08 265.219 355.478 264.39C379.842 280.019 398.858 302.279 409.673 327.38C377.227 336.142 341.691 332.471 309.483 316.842C292.131 308.436 276.919 297.188 264.439 283.69C260.874 283.216 257.19 282.506 253.743 281.914C267.648 298.845 285.595 312.935 306.512 322.999C328.261 333.537 351.437 338.865 374.256 338.865C388.161 338.865 402.067 336.852 415.378 332.826L418.943 331.761L417.636 328.327C407.415 302.279 388.874 279.191 364.748 262.259C394.341 254.563 420.607 238.579 439.623 216.675L442.119 213.833L439.029 211.583ZM98.2883 190.745C100.665 193.231 103.161 195.481 105.657 197.73C125.505 215.372 149.037 227.568 173.639 233.251C149.75 232.896 125.386 238.224 103.042 248.998C97.8129 251.485 92.7023 254.326 87.8295 257.405C57.4041 251.366 30.0688 236.329 10.221 214.78C35.0605 197.73 66.199 189.205 98.2883 190.745Z" fill="#D3B200"/>
<path d="M222.723 183.996C223.674 173.695 223.436 163.157 222.01 152.62C221.059 163.276 221.297 173.813 222.723 183.996Z" fill="#D3B200"/>
<path d="M234.371 373.201C234.846 372.491 234.846 371.425 234.252 369.886C232.35 364.321 230.33 353.665 230.33 350.824C230.33 347.982 231.756 326.078 227.596 314.119L226.17 296.24L229.735 280.256C229.735 280.256 230.567 268.179 241.858 270.903C253.149 273.626 283.099 280.256 292.25 274.218C301.401 268.179 295.816 259.891 291.18 255.747C286.426 251.603 263.489 237.869 250.296 232.304C236.985 226.739 247.563 224.016 241.502 213.004C235.44 201.993 238.411 187.666 240.907 179.97C243.403 172.274 241.145 160.671 242.333 152.383C243.403 144.095 240.075 100.878 232.944 80.7499C225.813 60.6216 223.318 62.0424 222.129 54.5831C221.059 47.1239 220.703 42.151 218.207 44.1638C218.207 44.1638 211.552 60.3848 204.896 72.225C198.24 84.0651 188.019 134.267 192.179 159.25C196.339 184.351 200.736 211.347 198.003 219.872C195.269 228.396 193.249 251.248 200.736 271.968C208.224 292.688 211.789 316.606 212.027 322.17C212.265 327.735 214.76 338.391 218.088 346.443C221.416 354.376 223.08 366.571 219.752 370.952C219.039 372.017 218.564 372.728 218.445 373.201C160.446 374.149 109.698 383.266 77.9651 396.882C123.603 390.133 174.827 386.344 229.022 386.344C283.099 386.344 334.323 390.133 380.08 396.882C347.515 383.029 294.508 373.793 234.371 373.201ZM205.847 119.704C204.777 127.992 205.847 133.794 207.273 136.517C208.699 139.24 204.777 144.213 204.777 144.213C204.777 144.213 202.281 140.661 202.044 128.229C201.806 115.797 203.47 101.825 203.47 101.825C203.47 101.825 208.699 78.9738 211.195 73.409C211.195 73.409 213.453 71.7514 216.424 69.0281C216.424 69.0281 220.822 71.7514 223.08 77.553C225.338 83.3547 226.408 103.483 228.666 106.206C230.924 108.929 232.231 137.109 229.735 140.661L226.645 139.832C226.645 139.832 234.371 117.218 224.982 111.416C215.474 105.614 206.916 111.416 205.847 119.704ZM221.059 260.483C221.059 260.483 220.822 253.853 227.953 256.102C235.203 258.352 241.264 259.654 241.264 259.654C241.264 259.654 222.723 258.352 221.059 260.483Z" fill="#D3B200"/>
</g>
<defs>
<clipPath id="clip0_324_665">
<rect width="442" height="397" fill="white"/>
</clipPath>
</defs>
</svg>
