<svg width="20" height="20" viewBox="0 0 20 20" fill="none" xmlns="http://www.w3.org/2000/svg">
<path d="M13.4744 19.2C13.2524 19.2007 13.033 19.1592 12.8325 19.0787C12.6319 18.9982 12.4552 18.8808 12.3153 18.7349L5.13803 11.1928C4.91947 10.9678 4.79999 10.6857 4.79999 10.3946C4.79999 10.1034 4.91947 9.82127 5.13803 9.59635L12.5679 2.0542C12.8202 1.7975 13.1826 1.63606 13.5755 1.60542C13.9685 1.57477 14.3597 1.67742 14.6632 1.89079C14.9666 2.10415 15.1575 2.41076 15.1937 2.74315C15.2299 3.07554 15.1086 3.40649 14.8564 3.66319L8.21401 10.4008L14.6335 17.1385C14.8152 17.323 14.9306 17.5477 14.9661 17.786C15.0016 18.0242 14.9556 18.2661 14.8337 18.483C14.7118 18.6998 14.5189 18.8826 14.278 19.0097C14.0371 19.1368 13.7583 19.2028 13.4744 19.2Z" fill="black"/>
</svg>
