<svg width="365.11696777343747px" height="44.960001373291014px" xmlns="http://www.w3.org/2000/svg" viewBox="67.44151611328127 52.51999931335449 365.11696777343747 44.960001373291014" style="background: rgb(253, 253, 253);" preserveAspectRatio="xMidYMid"><defs><filter id="editing-metal-beveled"><feGaussianBlur stdDeviation="4" in="SourceAlpha" result="blur"></feGaussianBlur><feSpecularLighting surfaceScale="5" specularConstant="0.8" specularExponent="7.5" lighting-color="#ffffff" in="blur" result="specular"><fePointLight x="-250" y="-50" z="300"></fePointLight></feSpecularLighting><feComposite operator="in" in="specular" in2="SourceAlpha" result="comp"></feComposite><feComposite in="SourceGraphic" in2="comp" operator="arithmetic" k1="0" k2="1" k3="1" k4="0"></feComposite></filter></defs><g filter="url(#editing-metal-beveled)"><g transform="translate(122.81160545349121, 81.40000295639038)"><path d="M9.97-2.93L9.97-2.93L9.97-2.93Q9.97-2.29 9.71-1.75L9.71-1.75L9.71-1.75Q9.46-1.22 9.02-0.82L9.02-0.82L9.02-0.82Q8.59-0.43 8.02-0.22L8.02-0.22L8.02-0.22Q7.44 0 6.78 0L6.78 0L1.42 0L1.42-11.36L6.90-11.36L6.90-11.36Q7.49-11.36 7.97-11.10L7.97-11.10L7.97-11.10Q8.45-10.85 8.78-10.44L8.78-10.44L8.78-10.44Q9.12-10.03 9.30-9.51L9.30-9.51L9.30-9.51Q9.49-8.99 9.49-8.46L9.49-8.46L9.49-8.46Q9.49-7.60 9.06-6.89L9.06-6.89L9.06-6.89Q8.62-6.18 7.86-5.82L7.86-5.82L7.86-5.82Q8.83-5.54 9.40-4.75L9.40-4.75L9.40-4.75Q9.97-3.97 9.97-2.93ZM8.85-3.12L8.85-3.12L8.85-3.12Q8.85-3.54 8.70-3.93L8.70-3.93L8.70-3.93Q8.56-4.32 8.30-4.62L8.30-4.62L8.30-4.62Q8.03-4.91 7.67-5.10L7.67-5.10L7.67-5.10Q7.31-5.28 6.90-5.28L6.90-5.28L2.54-5.28L2.54-0.98L6.78-0.98L6.78-0.98Q7.22-0.98 7.59-1.15L7.59-1.15L7.59-1.15Q7.97-1.33 8.25-1.62L8.25-1.62L8.25-1.62Q8.53-1.92 8.69-2.31L8.69-2.31L8.69-2.31Q8.85-2.70 8.85-3.12ZM6.54-10.38L2.54-10.38L2.54-6.19L6.45-6.19L6.45-6.19Q6.86-6.19 7.22-6.37L7.22-6.37L7.22-6.37Q7.58-6.54 7.84-6.83L7.84-6.83L7.84-6.83Q8.10-7.12 8.24-7.50L8.24-7.50L8.24-7.50Q8.38-7.87 8.38-8.29L8.38-8.29L8.38-8.29Q8.38-8.72 8.25-9.10L8.25-9.10L8.25-9.10Q8.11-9.49 7.86-9.77L7.86-9.77L7.86-9.77Q7.62-10.05 7.28-10.22L7.28-10.22L7.28-10.22Q6.94-10.38 6.54-10.38L6.54-10.38ZM13.20-0.99L19.71-0.99L19.71 0L12.08 0L12.08-11.36L19.57-11.36L19.57-10.37L13.20-10.37L13.20-6.27L18.75-6.27L18.75-5.33L13.20-5.33L13.20-0.99ZM33.09-10.13L32.54-9.23L32.54-9.23Q32.06-9.78 31.26-10.11L31.26-10.11L31.26-10.11Q30.46-10.45 29.44-10.45L29.44-10.45L29.44-10.45Q27.94-10.45 27.25-9.88L27.25-9.88L27.25-9.88Q26.56-9.31 26.56-8.34L26.56-8.34L26.56-8.34Q26.56-7.82 26.74-7.50L26.74-7.50L26.74-7.50Q26.93-7.17 27.31-6.93L27.31-6.93L27.31-6.93Q27.70-6.69 28.30-6.51L28.30-6.51L28.30-6.51Q28.90-6.34 29.71-6.16L29.71-6.16L29.71-6.16Q30.62-5.97 31.35-5.73L31.35-5.73L31.35-5.73Q32.08-5.49 32.59-5.13L32.59-5.13L32.59-5.13Q33.10-4.77 33.38-4.26L33.38-4.26L33.38-4.26Q33.65-3.74 33.65-2.98L33.65-2.98L33.65-2.98Q33.65-2.19 33.34-1.62L33.34-1.62L33.34-1.62Q33.04-1.04 32.50-0.66L32.50-0.66L32.50-0.66Q31.95-0.27 31.20-0.09L31.20-0.09L31.20-0.09Q30.45 0.10 29.55 0.10L29.55 0.10L29.55 0.10Q26.91 0.10 24.99-1.55L24.99-1.55L25.55-2.46L25.55-2.46Q25.86-2.14 26.28-1.86L26.28-1.86L26.28-1.86Q26.70-1.57 27.22-1.35L27.22-1.35L27.22-1.35Q27.74-1.14 28.34-1.02L28.34-1.02L28.34-1.02Q28.93-0.90 29.58-0.90L29.58-0.90L29.58-0.90Q30.94-0.90 31.70-1.38L31.70-1.38L31.70-1.38Q32.46-1.87 32.46-2.86L32.46-2.86L32.46-2.86Q32.46-3.39 32.25-3.75L32.25-3.75L32.25-3.75Q32.03-4.11 31.60-4.38L31.60-4.38L31.60-4.38Q31.17-4.64 30.53-4.83L30.53-4.83L30.53-4.83Q29.89-5.02 29.04-5.22L29.04-5.22L29.04-5.22Q28.14-5.42 27.47-5.65L27.47-5.65L27.47-5.65Q26.80-5.87 26.34-6.21L26.34-6.21L26.34-6.21Q25.87-6.54 25.64-7.02L25.64-7.02L25.64-7.02Q25.41-7.49 25.41-8.18L25.41-8.18L25.41-8.18Q25.41-8.96 25.70-9.58L25.70-9.58L25.70-9.58Q26.00-10.19 26.54-10.60L26.54-10.60L26.54-10.60Q27.09-11.01 27.82-11.22L27.82-11.22L27.82-11.22Q28.56-11.44 29.46-11.44L29.46-11.44L29.46-11.44Q30.59-11.44 31.48-11.10L31.48-11.10L31.48-11.10Q32.37-10.75 33.09-10.13L33.09-10.13ZM43.30 0L35.62 0L35.62-11.36L36.74-11.36L36.74-0.99L43.30-0.99L43.30 0ZM46.06 0L44.94 0L44.94-11.36L46.06-11.36L46.06 0ZM60.10 0L58.98 0L58.98-9.33L54.83-2.11L54.18-2.11L50.03-9.33L50.03 0L48.91 0L48.91-11.36L50.06-11.36L54.50-3.58L58.96-11.36L60.10-11.36L60.10 0ZM63.46 1.30L62.90 1.30L63.17-0.05L62.80-0.05L62.80-1.57L63.86-1.57L63.86-0.05L63.46 1.30ZM71.74 0L70.62 0L70.62-11.36L78.08-11.36L78.08-10.37L71.74-10.37L71.74-6.19L77.09-6.19L77.09-5.26L71.74-5.26L71.74 0ZM81.17 0L80.05 0L80.05-11.36L81.17-11.36L81.17 0ZM92.08-11.36L92.08-10.37L88.03-10.37L88.03 0L86.91 0L86.91-10.37L82.86-10.37L82.86-11.36L92.08-11.36ZM106.56 0L105.12 0L103.81-1.38L103.81-1.38Q103.14-0.66 102.26-0.25L102.26-0.25L102.26-0.25Q101.39 0.16 100.37 0.16L100.37 0.16L100.37 0.16Q99.62 0.16 98.95-0.06L98.95-0.06L98.95-0.06Q98.29-0.29 97.80-0.70L97.80-0.70L97.80-0.70Q97.31-1.10 97.02-1.67L97.02-1.67L97.02-1.67Q96.74-2.24 96.74-2.93L96.74-2.93L96.74-2.93Q96.74-3.50 96.93-3.98L96.93-3.98L96.93-3.98Q97.12-4.46 97.46-4.87L97.46-4.87L97.46-4.87Q97.79-5.28 98.22-5.63L98.22-5.63L98.22-5.63Q98.66-5.98 99.14-6.30L99.14-6.30L99.14-6.30Q98.70-6.77 98.41-7.14L98.41-7.14L98.41-7.14Q98.11-7.50 97.93-7.82L97.93-7.82L97.93-7.82Q97.74-8.13 97.66-8.42L97.66-8.42L97.66-8.42Q97.58-8.70 97.58-9.01L97.58-9.01L97.58-9.01Q97.58-9.54 97.80-9.99L97.80-9.99L97.80-9.99Q98.02-10.45 98.40-10.78L98.40-10.78L98.40-10.78Q98.78-11.12 99.30-11.31L99.30-11.31L99.30-11.31Q99.82-11.50 100.43-11.50L100.43-11.50L100.43-11.50Q100.99-11.50 101.47-11.34L101.47-11.34L101.47-11.34Q101.95-11.18 102.31-10.89L102.31-10.89L102.31-10.89Q102.67-10.59 102.88-10.18L102.88-10.18L102.88-10.18Q103.09-9.76 103.09-9.26L103.09-9.26L103.09-9.26Q103.09-8.77 102.89-8.36L102.89-8.36L102.89-8.36Q102.69-7.95 102.35-7.58L102.35-7.58L102.35-7.58Q102.02-7.22 101.57-6.88L101.57-6.88L101.57-6.88Q101.12-6.54 100.61-6.21L100.61-6.21L103.79-2.88L103.79-2.88Q104.11-3.49 104.30-4.20L104.30-4.20L104.30-4.20Q104.48-4.91 104.48-5.70L104.48-5.70L105.41-5.70L105.41-5.70Q105.39-4.70 105.14-3.82L105.14-3.82L105.14-3.82Q104.90-2.94 104.43-2.21L104.43-2.21L106.56 0ZM100.48-0.72L100.48-0.72L100.48-0.72Q101.30-0.72 101.98-1.06L101.98-1.06L101.98-1.06Q102.67-1.41 103.20-2.02L103.20-2.02L99.76-5.65L99.76-5.65Q98.91-5.06 98.35-4.41L98.35-4.41L98.35-4.41Q97.79-3.76 97.79-2.90L97.79-2.90L97.79-2.90Q97.79-2.37 98.02-1.96L98.02-1.96L98.02-1.96Q98.26-1.55 98.64-1.27L98.64-1.27L98.64-1.27Q99.02-0.99 99.50-0.86L99.50-0.86L99.50-0.86Q99.98-0.72 100.48-0.72ZM98.59-9.04L98.59-9.04L98.59-9.04Q98.59-8.85 98.65-8.66L98.65-8.66L98.65-8.66Q98.70-8.46 98.86-8.22L98.86-8.22L98.86-8.22Q99.02-7.97 99.29-7.64L99.29-7.64L99.29-7.64Q99.55-7.31 99.98-6.86L99.98-6.86L99.98-6.86Q100.91-7.47 101.50-8.01L101.50-8.01L101.50-8.01Q102.08-8.54 102.08-9.23L102.08-9.23L102.08-9.23Q102.08-9.86 101.62-10.26L101.62-10.26L101.62-10.26Q101.15-10.66 100.43-10.66L100.43-10.66L100.43-10.66Q100.03-10.66 99.70-10.53L99.70-10.53L99.70-10.53Q99.36-10.40 99.11-10.18L99.11-10.18L99.11-10.18Q98.86-9.95 98.73-9.66L98.73-9.66L98.73-9.66Q98.59-9.38 98.59-9.04ZM120.02-11.36L121.12-11.36L121.12 0L120.02 0L120.02-5.31L113.28-5.31L113.28 0L112.16 0L112.16-11.36L113.28-11.36L113.28-6.30L120.02-6.30L120.02-11.36ZM125.09-0.99L131.60-0.99L131.60 0L123.97 0L123.97-11.36L131.46-11.36L131.46-10.37L125.09-10.37L125.09-6.27L130.64-6.27L130.64-5.33L125.09-5.33L125.09-0.99ZM132.48 0L137.23-11.36L138.18-11.36L142.90 0L141.71 0L140.24-3.55L135.14-3.55L133.68 0L132.48 0ZM135.38-4.43L139.98-4.43L137.70-10.05L135.38-4.43ZM152.21 0L144.53 0L144.53-11.36L145.65-11.36L145.65-0.99L152.21-0.99L152.21 0ZM160.03-11.36L160.03-10.37L155.98-10.37L155.98 0L154.86 0L154.86-10.37L150.82-10.37L150.82-11.36L160.03-11.36ZM169.58-11.36L170.69-11.36L170.69 0L169.58 0L169.58-5.31L162.85-5.31L162.85 0L161.73 0L161.73-11.36L162.85-11.36L162.85-6.30L169.58-6.30L169.58-11.36ZM172.37-11.36L173.60-11.36L177.31-5.25L181.06-11.36L182.27-11.36L177.87-4.22L177.87 0L176.75 0L176.75-4.26L172.37-11.36ZM193.20-6.43L191.22-11.28L192.27-11.28L193.87-7.25L195.49-11.28L196.56-11.28L194.58-6.43L196.75-1.30L200.86-11.36L202.08-11.36L197.26 0L196.27 0L193.89-5.62L191.49 0L190.51 0L185.71-11.36L186.91-11.36L191.04-1.30L193.20-6.43ZM204.80 0L203.68 0L203.68-11.36L204.80-11.36L204.80 0ZM215.71-11.36L215.71-10.37L211.66-10.37L211.66 0L210.54 0L210.54-10.37L206.50-10.37L206.50-11.36L215.71-11.36ZM225.26-11.36L226.37-11.36L226.37 0L225.26 0L225.26-5.31L218.53-5.31L218.53 0L217.41 0L217.41-11.36L218.53-11.36L218.53-6.30L225.26-6.30L225.26-11.36ZM237.90-0.93L237.90-0.93L237.90-0.93Q238.98-0.93 239.69-1.34L239.69-1.34L239.69-1.34Q240.40-1.74 240.82-2.41L240.82-2.41L240.82-2.41Q241.25-3.07 241.42-3.92L241.42-3.92L241.42-3.92Q241.58-4.77 241.58-5.63L241.58-5.63L241.58-11.36L242.70-11.36L242.70-5.63L242.70-5.63Q242.70-4.48 242.45-3.45L242.45-3.45L242.45-3.45Q242.19-2.42 241.62-1.63L241.62-1.63L241.62-1.63Q241.06-0.85 240.14-0.38L240.14-0.38L240.14-0.38Q239.23 0.08 237.92 0.08L237.92 0.08L237.92 0.08Q236.58 0.08 235.66-0.41L235.66-0.41L235.66-0.41Q234.74-0.90 234.18-1.70L234.18-1.70L234.18-1.70Q233.62-2.50 233.38-3.52L233.38-3.52L233.38-3.52Q233.14-4.54 233.14-5.63L233.14-5.63L233.14-11.36L234.24-11.36L234.24-5.63L234.24-5.63Q234.24-4.74 234.42-3.89L234.42-3.89L234.42-3.89Q234.59-3.04 235.02-2.38L235.02-2.38L235.02-2.38Q235.44-1.73 236.14-1.33L236.14-1.33L236.14-1.33Q236.85-0.93 237.90-0.93ZM252.56-10.13L252.02-9.23L252.02-9.23Q251.54-9.78 250.74-10.11L250.74-10.11L250.74-10.11Q249.94-10.45 248.91-10.45L248.91-10.45L248.91-10.45Q247.41-10.45 246.72-9.88L246.72-9.88L246.72-9.88Q246.03-9.31 246.03-8.34L246.03-8.34L246.03-8.34Q246.03-7.82 246.22-7.50L246.22-7.50L246.22-7.50Q246.40-7.17 246.78-6.93L246.78-6.93L246.78-6.93Q247.17-6.69 247.77-6.51L247.77-6.51L247.77-6.51Q248.37-6.34 249.18-6.16L249.18-6.16L249.18-6.16Q250.10-5.97 250.82-5.73L250.82-5.73L250.82-5.73Q251.55-5.49 252.06-5.13L252.06-5.13L252.06-5.13Q252.58-4.77 252.85-4.26L252.85-4.26L252.85-4.26Q253.12-3.74 253.12-2.98L253.12-2.98L253.12-2.98Q253.12-2.19 252.82-1.62L252.82-1.62L252.82-1.62Q252.51-1.04 251.97-0.66L251.97-0.66L251.97-0.66Q251.42-0.27 250.67-0.09L250.67-0.09L250.67-0.09Q249.92 0.10 249.02 0.10L249.02 0.10L249.02 0.10Q246.38 0.10 244.46-1.55L244.46-1.55L245.02-2.46L245.02-2.46Q245.33-2.14 245.75-1.86L245.75-1.86L245.75-1.86Q246.18-1.57 246.70-1.35L246.70-1.35L246.70-1.35Q247.22-1.14 247.81-1.02L247.81-1.02L247.81-1.02Q248.40-0.90 249.06-0.90L249.06-0.90L249.06-0.90Q250.42-0.90 251.18-1.38L251.18-1.38L251.18-1.38Q251.94-1.87 251.94-2.86L251.94-2.86L251.94-2.86Q251.94-3.39 251.72-3.75L251.72-3.75L251.72-3.75Q251.50-4.11 251.07-4.38L251.07-4.38L251.07-4.38Q250.64-4.64 250.00-4.83L250.00-4.83L250.00-4.83Q249.36-5.02 248.51-5.22L248.51-5.22L248.51-5.22Q247.62-5.42 246.94-5.65L246.94-5.65L246.94-5.65Q246.27-5.87 245.81-6.21L245.81-6.21L245.81-6.21Q245.34-6.54 245.11-7.02L245.11-7.02L245.11-7.02Q244.88-7.49 244.88-8.18L244.88-8.18L244.88-8.18Q244.88-8.96 245.18-9.58L245.18-9.58L245.18-9.58Q245.47-10.19 246.02-10.60L246.02-10.60L246.02-10.60Q246.56-11.01 247.30-11.22L247.30-11.22L247.30-11.22Q248.03-11.44 248.93-11.44L248.93-11.44L248.93-11.44Q250.06-11.44 250.95-11.10L250.95-11.10L250.95-11.10Q251.84-10.75 252.56-10.13L252.56-10.13Z" fill="#ffffff"></path></g></g><style>text {
  font-size: 64px;
  font-family: Arial Black;
  dominant-baseline: central;
  text-anchor: middle;
}</style></svg>