<svg width="53" height="50" viewBox="0 0 53 50" fill="none" xmlns="http://www.w3.org/2000/svg">
<path d="M52.4385 31.7777C50.8211 19.798 46.3027 11.8115 39.9442 9.95547C38.1591 9.44938 35.0356 9.33678 32.4139 13.611L30.9078 12.3176L30.9082 1.40647C30.9082 0.619092 30.2946 0.000401705 29.5138 0.000401705C28.7889 0.000401705 28.1753 0.619092 28.1753 1.40647V12.9925C28.1753 13.3864 28.3426 13.7799 28.6772 14.0612L38.0477 22.3289C39.1632 23.341 40.6693 23.9037 42.1754 23.9037H42.566C43.3469 23.9037 43.9605 23.285 43.9605 22.4976C43.9605 21.7102 43.2909 21.0915 42.566 21.0915H42.1198C41.2833 21.0915 40.4463 20.8102 39.8328 20.2481L34.5339 15.5799C36.4864 11.9804 38.4383 12.543 39.1635 12.7116C44.4068 14.2303 48.2555 21.3728 49.7056 32.2279C51.1557 43.0827 49.371 46.0636 48.1438 46.851C46.0801 48.2009 42.1198 46.1197 39.3309 44.3762C32.7492 40.3828 31.8006 38.358 31.8006 29.0782C31.8006 27.8408 31.9123 26.4908 32.0236 25.1413L33.8087 26.7161C34.5895 27.3909 34.9802 28.3469 34.9802 29.3595C34.9802 30.1469 35.5938 30.7655 36.3746 30.7655C37.1555 30.7655 37.7691 30.1469 37.7691 29.3595C37.7691 27.5595 36.9882 25.8161 35.5938 24.5786L27.3944 17.4353C26.8924 16.9853 26.1116 16.9853 25.5537 17.4353L17.4659 24.5782C16.0715 25.7595 15.2906 27.503 15.2906 29.3591C15.2906 30.1465 15.9042 30.7651 16.6851 30.7651C17.4659 30.7651 18.0795 30.1465 18.0795 29.3591C18.0795 28.3469 18.5258 27.3904 19.251 26.7157L21.0361 25.1409C21.2035 26.4908 21.2591 27.8404 21.2591 29.0778C21.2591 38.3576 20.2553 40.3826 13.7288 44.3758C10.9399 46.0632 6.9239 48.2001 4.91588 46.8506C3.68876 46.0632 1.90406 43.0823 3.35409 32.2275C4.80423 21.3726 8.65292 14.286 13.8962 12.7112C14.5654 12.4864 16.5177 11.9238 18.5258 15.5795L13.2269 20.2477C12.6134 20.8102 11.7768 21.0911 10.9399 21.0911H10.5493C9.76842 21.0911 9.15484 21.7098 9.15484 22.4972C9.15484 23.2846 9.76842 23.9033 10.5493 23.9033H10.9399C12.446 23.9033 13.8962 23.3407 15.0676 22.3285L24.4381 14.0608C24.7171 13.7795 24.9401 13.386 24.9401 12.9921V1.40607C24.9401 0.61869 24.3265 0 23.5456 0C22.7647 0 22.0395 0.61869 22.0395 1.40607V12.3734L20.5334 13.6669C17.9674 9.39254 14.7882 9.50482 13.0031 10.0113C6.75647 11.8673 2.18217 19.7977 0.564598 31.7773C-0.7182 41.5072 0.173962 47.019 3.35351 49.1C4.30169 49.7187 5.36152 50 6.47699 50C9.21022 50 12.3338 48.4252 15.1227 46.6818C22.5412 42.1823 23.9913 39.2015 23.9913 28.9653C23.9913 27.0532 23.824 24.9158 23.4894 22.835L26.4457 20.2476L29.4019 22.835C29.0673 24.9158 28.9 27.0532 28.9 28.9653C28.9 39.2015 30.4061 42.1824 37.7686 46.6818C40.6132 48.4252 43.681 50 46.4143 50C47.5298 50 48.5897 49.7187 49.5378 49.1C52.8286 47.0191 53.7212 41.5071 52.438 31.7773L52.4385 31.7777Z" fill="#D3B200"/>
</svg>
