<svg width="50" height="50" viewBox="0 0 50 50" fill="none" xmlns="http://www.w3.org/2000/svg">
<path d="M47.2393 17.3962C47.2393 26.9274 42.7601 32.0316 24.9997 46.7712C12.708 36.5108 6.7705 30.9379 4.27049 25.2608H17.3434L19.0622 27.7607C19.2704 28.0212 19.5832 28.1774 19.8956 28.0731C20.208 28.0212 20.4685 27.7084 20.5205 27.3959L21.9268 18.3856L25.1039 37.7085C25.1559 38.1252 25.5206 38.3857 25.885 38.3857C26.3017 38.3857 26.6142 38.1252 26.6661 37.7085L29.3223 23.646L29.6347 24.6357C29.739 24.9481 30.0514 25.2086 30.4158 25.2086H37.9159C38.2807 26.042 39.0618 26.615 40.0514 26.615C41.3535 26.615 42.3432 25.5734 42.3432 24.3232C42.3432 23.0211 41.3016 22.0315 40.0514 22.0315C39.0099 22.0315 38.1764 22.7086 37.8639 23.6459H31.0411L29.8953 20.2083C29.791 19.8436 29.4786 19.5835 29.0619 19.6354C28.6971 19.6354 28.3847 19.9479 28.3327 20.3126L25.9367 32.9689L22.7076 13.1772C22.6557 12.7605 22.2909 12.5 21.9265 12.5C21.5098 12.5 21.1974 12.8124 21.1454 13.1772L19.2704 25.1564L18.4893 24.0105C18.3331 23.8023 18.0726 23.6458 17.8121 23.6458H3.6975C3.07261 21.6665 2.81213 19.6353 2.81213 17.3959C2.81213 7.34376 8.64538 2.76042 14.0101 2.76042C19.5308 2.76042 23.9059 8.12501 23.958 8.17691C24.2185 8.48935 24.6352 8.69789 25.0519 8.69789C25.4686 8.69789 25.8853 8.48971 26.1459 8.17691C26.1978 8.12495 30.5208 2.76042 36.0938 2.76042C41.406 2.76078 47.2396 7.34422 47.2396 17.3959L47.2393 17.3962ZM50.0001 17.3959C50.0001 5.98959 42.9686 0 36.0417 0C30.9376 0 26.8751 3.38523 25 5.3126C23.125 3.4376 19.0625 0 13.9584 0C7.03126 0 0 5.9894 0 17.3959C0 28.75 5.88552 34.5834 24.1146 49.6876C24.3751 49.8957 24.6875 50 25 50C25.3124 50 25.6249 49.8957 25.8854 49.6876C44.1136 34.5834 49.999 28.75 49.999 17.3959" fill="#D3B200"/>
</svg>
