<svg width="50" height="50" viewBox="0 0 50 50" fill="none" xmlns="http://www.w3.org/2000/svg">
<path d="M17.083 15.2773C15.6423 15.2773 14.4443 16.4752 14.4443 17.9164C14.4443 19.3572 15.6422 20.5555 17.0834 20.5555C18.5242 20.5555 19.7225 19.3577 19.7225 17.9164C19.7225 16.4757 18.5247 15.2773 17.0834 15.2773H17.083Z" fill="#D3B200"/>
<path d="M32.9164 15.2773C31.4757 15.2773 30.2773 16.4752 30.2773 17.9164C30.2773 19.3572 31.4752 20.5555 32.9164 20.5555C34.3572 20.5555 35.5555 19.3577 35.5555 17.9164C35.5555 16.4757 34.3577 15.2773 32.9164 15.2773Z" fill="#D3B200"/>
<path d="M25 0C11.2093 0 0 11.2093 0 25C0 38.7907 11.2093 50 25 50C38.7907 50 50 38.7907 50 25C50 11.2093 38.7907 0 25 0ZM25 3.05565C37.1488 3.05565 46.9444 12.8515 46.9444 25.0001C46.9444 37.1487 37.1486 46.9445 25 46.9445C12.8514 46.9445 3.05556 37.1487 3.05556 25.0001C3.05556 12.8515 12.8514 3.05565 25 3.05565Z" fill="#D3B200"/>
<path d="M36.9614 32.9876C37.8124 31.6906 36.8917 30.4587 35.7287 30.5052C35.1978 30.5265 34.735 30.8834 34.4441 31.3213C32.3212 34.5126 28.656 36.1131 24.9997 36.1131C21.3431 36.1131 17.6778 34.513 15.5554 31.3213C15.2643 30.8838 14.8016 30.5265 14.2707 30.5052C13.1077 30.4587 12.187 31.6906 13.038 32.9876C15.7554 37.1291 20.3937 39.1683 24.9993 39.1683C29.6059 39.1683 34.2438 37.1291 36.9606 32.9876H36.9614Z" fill="#D3B200"/>
</svg>
