<svg width="20" height="20" viewBox="0 0 20 20" fill="none" xmlns="http://www.w3.org/2000/svg">
<path d="M15.2944 13.3328C14.9202 13.3342 14.5502 13.4113 14.2065 13.5592C13.8628 13.7072 13.5526 13.9231 13.2944 14.1939L6.5222 10.805C6.68879 10.2999 6.68879 9.75462 6.5222 9.24949L13.3055 5.79949C13.7914 6.3115 14.4503 6.62457 15.1541 6.67785C15.858 6.73113 16.5565 6.5208 17.1139 6.08776C17.6713 5.65471 18.0478 5.02989 18.1702 4.33472C18.2926 3.63955 18.1521 2.92371 17.7761 2.32634C17.4001 1.72896 16.8155 1.29272 16.1357 1.10241C15.456 0.912099 14.7298 0.981314 14.0983 1.2966C13.4668 1.61189 12.975 2.15073 12.7187 2.80838C12.4623 3.46603 12.4596 4.19551 12.7111 4.85504L5.99442 8.27171C5.63167 7.82807 5.14059 7.50748 4.58849 7.35389C4.03638 7.2003 3.45029 7.22123 2.91055 7.4138C2.37081 7.60637 1.90384 7.96117 1.57365 8.42955C1.24347 8.89793 1.06622 9.45697 1.06622 10.03C1.06622 10.6031 1.24347 11.1621 1.57365 11.6305C1.90384 12.0989 2.37081 12.4537 2.91055 12.6463C3.45029 12.8389 4.03638 12.8598 4.58849 12.7062C5.14059 12.5526 5.63167 12.232 5.99442 11.7884L12.6944 15.1606C12.5812 15.4646 12.5229 15.7862 12.5222 16.1106C12.5222 16.66 12.6851 17.197 12.9903 17.6538C13.2956 18.1107 13.7294 18.4667 14.237 18.6769C14.7445 18.8872 15.3031 18.9422 15.8419 18.835C16.3807 18.7278 16.8757 18.4633 17.2642 18.0748C17.6526 17.6863 17.9172 17.1914 18.0244 16.6525C18.1316 16.1137 18.0766 15.5552 17.8663 15.0476C17.6561 14.54 17.3 14.1062 16.8432 13.801C16.3864 13.4957 15.8494 13.3328 15.3 13.3328H15.2944Z" fill="black"/>
</svg>
