<svg width="25" height="25" viewBox="0 0 25 25" fill="none" xmlns="http://www.w3.org/2000/svg">
<path d="M22.8616 9.56025C22.7961 9.3674 22.6756 9.19795 22.5149 9.07281C22.3542 8.94768 22.1604 8.87233 21.9574 8.85609L16.0189 8.38421L13.4491 2.69567C13.3672 2.51245 13.2341 2.35684 13.0658 2.2476C12.8975 2.13837 12.7011 2.08019 12.5005 2.08008C12.2998 2.07997 12.1034 2.13794 11.9349 2.24698C11.7665 2.35603 11.6332 2.5115 11.5512 2.69463L8.98138 8.38421L3.04284 8.85609C2.84331 8.87189 2.65256 8.94485 2.49342 9.06622C2.33427 9.1876 2.21346 9.35225 2.14543 9.54049C2.07741 9.72873 2.06506 9.93258 2.10986 10.1277C2.15466 10.3227 2.25471 10.5008 2.39805 10.6405L6.78659 14.9186L5.2345 21.6394C5.18738 21.8429 5.20248 22.0558 5.27786 22.2505C5.35324 22.4453 5.4854 22.6128 5.65721 22.7315C5.82903 22.8502 6.03254 22.9146 6.24136 22.9161C6.45018 22.9177 6.65466 22.8565 6.82825 22.7405L12.5001 18.9592L18.172 22.7405C18.3494 22.8583 18.5587 22.9189 18.7716 22.9142C18.9846 22.9096 19.1909 22.8398 19.363 22.7143C19.5351 22.5889 19.6647 22.4137 19.7343 22.2124C19.8038 22.0111 19.8101 21.7933 19.7522 21.5884L17.847 14.9217L22.572 10.6696C22.8814 10.3905 22.9949 9.95504 22.8616 9.56025Z" fill="black"/>
</svg>
