<svg width="401.3600219726562px" height="99.68000183105468px" xmlns="http://www.w3.org/2000/svg" viewBox="49.319989013671886 25.15999908447266 401.3600219726562 99.68000183105468" style="background: rgb(253, 253, 253);" preserveAspectRatio="xMidYMid"><defs><filter id="editing-metal-beveled"><feGaussianBlur stdDeviation="4" in="SourceAlpha" result="blur"></feGaussianBlur><feSpecularLighting surfaceScale="5" specularConstant="0.8" specularExponent="7.5" lighting-color="#bbcedd" in="blur" result="specular"><fePointLight x="-250" y="-50" z="300"></fePointLight></feSpecularLighting><feComposite operator="in" in="specular" in2="SourceAlpha" result="comp"></feComposite><feComposite in="SourceGraphic" in2="comp" operator="arithmetic" k1="0" k2="1" k3="1" k4="0"></feComposite></filter></defs><g filter="url(#editing-metal-beveled)"><g transform="translate(110.39502346515656, 91.29500198364258)"><path d="M13.38 0L9.84 0L9.84-9.98L0.84-25.42L4.59-25.42L11.62-13.08L18.69-25.42L22.32-25.42L13.38-9.98L13.38 0ZM28.86-5.26L28.86-5.26Q28.86-2.14 33.28-2.14L33.28-2.14L33.28-2.14Q37.69-2.14 37.69-5.26L37.69-5.26L37.69-13.32L37.69-13.32Q37.69-16.45 33.28-16.45L33.28-16.45L33.28-16.45Q28.86-16.45 28.86-13.32L28.86-13.32L28.86-5.26ZM40.99-5.54L40.99-5.54Q40.99-2.79 39.12-1.20L39.12-1.20L39.12-1.20Q37.25 0.39 33.26 0.39L33.26 0.39L33.26 0.39Q29.27 0.39 27.41-1.20L27.41-1.20L27.41-1.20Q25.56-2.78 25.56-5.54L25.56-5.54L25.56-13.04L25.56-13.04Q25.56-15.80 27.41-17.39L27.41-17.39L27.41-17.39Q29.27-18.98 33.26-18.98L33.26-18.98L33.26-18.98Q37.25-18.98 39.12-17.38L39.12-17.38L39.12-17.38Q40.99-15.79 40.99-13.04L40.99-13.04L40.99-5.54ZM48.04 6.47L48.78 3.99L48.78 3.99Q50.61 4.66 53.26 4.66L53.26 4.66L53.26 4.66Q55.92 4.66 56.98 3.66L56.98 3.66L56.98 3.66Q58.04 2.65 58.04 0.54L58.04 0.54L58.04-2.04L58.04-2.04Q57.32-1.37 55.89-1.04L55.89-1.04L55.89-1.04Q54.46-0.70 53.26-0.70L53.26-0.70L53.26-0.70Q46.20-0.70 46.20-6.66L46.20-6.66L46.20-12.80L46.20-12.80Q46.20-15.70 47.96-17.34L47.96-17.34L47.96-17.34Q49.73-18.98 53.26-18.98L53.26-18.98L53.26-18.98Q54.67-18.98 56.15-18.40L56.15-18.40L56.15-18.40Q57.64-17.81 58.04-17.14L58.04-17.14L58.04-18.63L61.35-18.63L61.35-0.44L61.35-0.44Q61.35 2.92 59.58 5.04L59.58 5.04L59.58 5.04Q57.81 7.17 53.88 7.17L53.88 7.17L53.88 7.17Q49.94 7.17 48.04 6.47L48.04 6.47ZM58.04-4.64L58.04-13.89L58.04-13.89Q58.04-16.45 53.77-16.45L53.77-16.45L53.77-16.45Q49.50-16.45 49.50-13.15L49.50-13.15L49.50-6.15L49.50-6.15Q49.50-3.23 53.77-3.23L53.77-3.23L53.77-3.23Q56.29-3.23 58.04-4.64L58.04-4.64ZM72.72 0.39L72.72 0.39L72.72 0.39Q69.89 0.39 68.33-1.15L68.33-1.15L68.33-1.15Q66.76-2.69 66.76-4.97L66.76-4.97L66.76-4.97Q66.76-6.28 67.31-7.14L67.31-7.14L67.31-7.14Q68.41-8.89 73.92-10.49L73.92-10.49L73.92-10.49Q77.10-11.37 77.58-12.01L77.58-12.01L77.58-12.01Q78.06-12.64 78.12-13.00L78.12-13.00L78.12-13.00Q78.17-13.36 78.17-14.15L78.17-14.15L78.17-14.15Q78.17-14.94 77.53-15.70L77.53-15.70L77.53-15.70Q76.89-16.45 74.74-16.45L74.74-16.45L74.74-16.45Q71.72-16.45 71.03-15.29L71.03-15.29L71.03-15.29Q70.68-14.70 70.68-13.68L70.68-13.68L70.68-12.85L67.50-12.85L67.50-13.69L67.50-13.69Q67.50-16.42 69.32-17.70L69.32-17.70L69.32-17.70Q71.14-18.98 74.76-18.98L74.76-18.98L74.76-18.98Q78.38-18.98 79.93-17.34L79.93-17.34L79.93-17.34Q81.47-15.70 81.47-12.66L81.47-12.66L81.47-4.71L81.47-4.71Q81.47-3.25 81.84-2.82L81.84-2.82L81.84-2.82Q82.21-2.39 83.43-2.39L83.43-2.39L83.04 0.14L82.37 0.14L82.37 0.14Q80.61 0.14 79.75-0.54L79.75-0.54L79.75-0.54Q78.89-1.21 78.43-2.64L78.43-2.64L78.43-2.64Q76.97-0.46 74.92 0.11L74.92 0.11L74.92 0.11Q73.93 0.39 72.72 0.39ZM74.38-8.24L74.38-8.24L74.38-8.24Q71.88-7.51 70.92-6.79L70.92-6.79L70.92-6.79Q69.96-6.06 69.96-4.75L69.96-4.75L69.96-4.75Q69.96-3.45 70.85-2.78L70.85-2.78L70.85-2.78Q71.74-2.11 72.99-2.11L72.99-2.11L72.99-2.11Q74.25-2.11 75.27-2.43L75.27-2.43L75.27-2.43Q76.29-2.76 77.11-3.40L77.11-3.40L77.11-3.40Q77.92-4.04 78.17-4.87L78.17-4.87L78.17-10.25L78.17-10.25Q76.89-8.96 74.38-8.24ZM101.41 0L97.88 0L97.88-25.42L112.31-25.42L112.31-22.78L101.41-22.78L101.41-14.31L111.67-14.31L111.67-11.67L101.41-11.67L101.41 0ZM120.32-5.26L120.32-5.26Q120.32-2.14 124.73-2.14L124.73-2.14L124.73-2.14Q129.15-2.14 129.15-5.26L129.15-5.26L129.15-13.32L129.15-13.32Q129.15-16.45 124.73-16.45L124.73-16.45L124.73-16.45Q120.32-16.45 120.32-13.32L120.32-13.32L120.32-5.26ZM132.45-5.54L132.45-5.54Q132.45-2.79 130.58-1.20L130.58-1.20L130.58-1.20Q128.71 0.39 124.72 0.39L124.72 0.39L124.72 0.39Q120.73 0.39 118.87-1.20L118.87-1.20L118.87-1.20Q117.02-2.78 117.02-5.54L117.02-5.54L117.02-13.04L117.02-13.04Q117.02-15.80 118.87-17.39L118.87-17.39L118.87-17.39Q120.73-18.98 124.72-18.98L124.72-18.98L124.72-18.98Q128.71-18.98 130.58-17.38L130.58-17.38L130.58-17.38Q132.45-15.79 132.45-13.04L132.45-13.04L132.45-5.54ZM141.63 0L138.32 0L138.32-18.63L141.63-18.63L141.63-16.00L141.63-16.00Q142.26-17.72 145.05-18.49L145.05-18.49L145.05-18.49Q146.51-18.91 148.10-18.90L148.10-18.90L147.99-16.07L147.99-16.07Q145.60-16.07 143.61-15.12L143.61-15.12L143.61-15.12Q141.63-14.17 141.63-13.04L141.63-13.04L141.63 0ZM165.38 0L161.84 0L161.84-25.42L176.27-25.42L176.27-22.78L165.38-22.78L165.38-14.31L175.64-14.31L175.64-11.67L165.38-11.67L165.38 0ZM185.31 0L182.00 0L182.00-18.63L185.31-18.63L185.31 0ZM185.31-21.99L182.00-21.99L182.00-25.42L185.31-25.42L185.31-21.99ZM201.23 0.14L200.74 0.14L200.74 0.14Q196.84 0.14 195.11-1.09L195.11-1.09L195.11-1.09Q193.38-2.32 193.38-5.33L193.38-5.33L193.38-16.14L190.27-16.14L190.27-18.63L193.50-18.63L193.90-24.40L196.68-24.40L196.68-18.63L201.36-18.63L201.36-16.14L196.68-16.14L196.68-5.54L196.68-5.54Q196.68-3.78 197.69-3.21L197.69-3.21L197.69-3.21Q198.70-2.64 201.22-2.64L201.22-2.64L201.59-2.64L201.23 0.14ZM218.78 0L218.78-13.73L218.78-13.73Q218.78-16.45 214.61-16.45L214.61-16.45L214.61-16.45Q212.55-16.45 211.38-15.57L211.38-15.57L211.38-15.57Q210.20-14.70 210.20-13.27L210.20-13.27L210.20 0L206.89 0L206.89-18.63L210.20-18.63L210.20-16.82L210.20-16.82Q212.06-18.98 215.72-18.98L215.72-18.98L215.72-18.98Q220.46-18.98 221.73-15.64L221.73-15.64L221.73-15.64Q222.08-14.70 222.08-13.54L222.08-13.54L222.08 0L218.78 0ZM235.53 0.39L235.53 0.39L235.53 0.39Q231.43 0.39 229.61-1.32L229.61-1.32L229.61-1.32Q227.78-3.02 227.78-6.57L227.78-6.57L227.78-13.06L227.78-13.06Q227.78-15.82 229.66-17.40L229.66-17.40L229.66-17.40Q231.54-18.98 235.34-18.98L235.34-18.98L235.34-18.98Q239.15-18.98 241.00-17.52L241.00-17.52L241.00-17.52Q242.86-16.05 242.86-13.32L242.86-13.32L242.86-8.89L231.08-8.89L231.08-6.28L231.08-6.28Q231.08-3.96 232.01-3.05L232.01-3.05L232.01-3.05Q232.95-2.14 235.37-2.14L235.37-2.14L235.37-2.14Q237.80-2.14 238.11-2.25L238.11-2.25L238.11-2.25Q238.43-2.36 238.76-2.50L238.76-2.50L238.76-2.50Q239.10-2.64 239.23-2.83L239.23-2.83L239.23-2.83Q239.36-3.02 239.58-3.42L239.58-3.42L239.58-3.42Q239.80-3.81 239.91-4.96L239.91-4.96L242.82-4.96L242.82-4.96Q242.65-3.29 242.24-2.27L242.24-2.27L242.24-2.27Q241.82-1.25 240.93-0.64L240.93-0.64L240.93-0.64Q240.05-0.04 238.81 0.18L238.81 0.18L238.81 0.18Q237.57 0.39 235.53 0.39ZM231.08-13.36L231.08-11.13L239.66-11.13L239.66-13.68L239.66-13.68Q239.66-15.26 238.58-15.86L238.58-15.86L238.58-15.86Q237.50-16.45 235.41-16.45L235.41-16.45L235.41-16.45Q233.31-16.45 232.20-15.73L232.20-15.73L232.20-15.73Q231.08-15.01 231.08-13.36L231.08-13.36ZM254.37-2.14L254.37-2.14L254.37-2.14Q258.12-2.14 258.12-4.94L258.12-4.94L258.12-4.94Q258.12-6.15 257.78-6.74L257.78-6.74L257.78-6.74Q257.45-7.33 256.22-7.79L256.22-7.79L251.79-9.42L251.79-9.42Q249.75-10.14 248.95-11.14L248.95-11.14L248.95-11.14Q248.15-12.13 248.15-13.62L248.15-13.62L248.15-13.62Q248.15-15.12 248.45-16.02L248.45-16.02L248.45-16.02Q248.75-16.93 249.43-17.61L249.43-17.61L249.43-17.61Q250.80-18.98 254.36-18.98L254.36-18.98L254.36-18.98Q257.91-18.98 260.47-17.96L260.47-17.96L259.72-15.43L259.72-15.43Q258.82-15.80 257.36-16.13L257.36-16.13L257.36-16.13Q255.90-16.45 254.81-16.45L254.81-16.45L254.81-16.45Q252.30-16.45 251.63-15.64L251.63-15.64L251.63-15.64Q251.23-15.13 251.23-14.15L251.23-14.15L251.23-14.15Q251.23-13.17 251.55-12.75L251.55-12.75L251.55-12.75Q251.88-12.34 252.83-12.01L252.83-12.01L257.20-10.28L257.20-10.28Q259.49-9.39 260.21-8.31L260.21-8.31L260.21-8.31Q260.93-7.22 260.93-4.90L260.93-4.90L260.93-4.90Q260.93-2.58 259.44-1.10L259.44-1.10L259.44-1.10Q257.94 0.39 254.81 0.39L254.81 0.39L254.81 0.39Q252.53 0.39 250.75-0.11L250.75-0.11L250.75-0.11Q248.98-0.60 248.03-1.13L248.03-1.13L248.84-3.55L248.84-3.55Q251.35-2.14 254.37-2.14ZM271.81-2.14L271.81-2.14L271.81-2.14Q275.55-2.14 275.55-4.94L275.55-4.94L275.55-4.94Q275.55-6.15 275.22-6.74L275.22-6.74L275.22-6.74Q274.89-7.33 273.66-7.79L273.66-7.79L269.23-9.42L269.23-9.42Q267.19-10.14 266.39-11.14L266.39-11.14L266.39-11.14Q265.59-12.13 265.59-13.62L265.59-13.62L265.59-13.62Q265.59-15.12 265.89-16.02L265.89-16.02L265.89-16.02Q266.19-16.93 266.87-17.61L266.87-17.61L266.87-17.61Q268.24-18.98 271.79-18.98L271.79-18.98L271.79-18.98Q275.34-18.98 277.91-17.96L277.91-17.96L277.15-15.43L277.15-15.43Q276.26-15.80 274.80-16.13L274.80-16.13L274.80-16.13Q273.34-16.45 272.25-16.45L272.25-16.45L272.25-16.45Q269.74-16.45 269.07-15.64L269.07-15.64L269.07-15.64Q268.66-15.13 268.66-14.15L268.66-14.15L268.66-14.15Q268.66-13.17 268.99-12.75L268.99-12.75L268.99-12.75Q269.31-12.34 270.26-12.01L270.26-12.01L274.64-10.28L274.64-10.28Q276.93-9.39 277.65-8.31L277.65-8.31L277.65-8.31Q278.37-7.22 278.37-4.90L278.37-4.90L278.37-4.90Q278.37-2.58 276.87-1.10L276.87-1.10L276.87-1.10Q275.38 0.39 272.25 0.39L272.25 0.39L272.25 0.39Q269.96 0.39 268.19-0.11L268.19-0.11L268.19-0.11Q266.41-0.60 265.46-1.13L265.46-1.13L266.27-3.55L266.27-3.55Q268.79-2.14 271.81-2.14Z" fill="#ffffff"></path></g></g><style>text {
  font-size: 64px;
  font-family: Arial Black;
  dominant-baseline: central;
  text-anchor: middle;
}</style></svg>